<?xml version="1.0" standalone="no"?>
<!DOCTYPE svg PUBLIC "-//W3C//DTD SVG 20010904//EN"
 "http://www.w3.org/TR/2001/REC-SVG-20010904/DTD/svg10.dtd">
<svg version="1.0" xmlns="http://www.w3.org/2000/svg"
 width="70.000000pt" height="70.000000pt" viewBox="0 0 70.000000 70.000000"
 preserveAspectRatio="xMidYMid meet">
<metadata>
Created by potrace 1.11, written by Peter Selinger 2001-2013
</metadata>
<g transform="translate(0.000000,70.000000) scale(0.100000,-0.100000)"
fill="#000000" stroke="none">
<path d="M475 608 c-11 -6 -38 -28 -60 -49 -30 -28 -50 -39 -80 -41 -36 -3
-40 -6 -43 -31 -2 -16 1 -41 6 -56 9 -27 6 -33 -53 -91 -47 -46 -66 -74 -74
-105 -6 -23 -20 -50 -31 -60 -23 -20 -26 -45 -8 -63 18 -18 43 -15 63 8 10 11
37 25 60 31 31 8 59 27 105 74 58 59 64 62 91 53 15 -5 40 -8 56 -6 25 3 28 7
31 43 2 30 13 50 41 80 21 22 44 50 50 62 46 90 -65 200 -154 151z m65 -12 c0
-8 -84 -45 -89 -40 -10 10 40 44 65 44 13 0 24 -2 24 -4z m30 -6 c0 -5 -4 -10
-10 -10 -5 0 -10 5 -10 10 0 6 5 10 10 10 6 0 10 -4 10 -10z m-170 -192 c0 -3
21 -20 47 -37 46 -31 52 -41 10 -20 -34 18 -77 61 -94 94 l-15 30 26 -30 c14
-16 25 -33 26 -37z m-36 -57 c21 -22 35 -44 31 -50 -3 -7 -25 -12 -48 -12 -95
1 -111 2 -116 6 -5 6 79 95 89 95 3 0 23 -18 44 -39z m-154 -101 c-6 -12 -14
-19 -17 -17 -2 3 1 15 7 27 6 12 14 19 17 17 2 -3 -1 -15 -7 -27z m133 23 c-7
-2 -19 -2 -25 0 -7 3 -2 5 12 5 14 0 19 -2 13 -5z"/>
<path d="M90 75 c-12 -22 -12 -28 2 -41 31 -31 52 12 25 50 -12 16 -14 16 -27
-9z"/>
</g>
</svg>
